<svg width="820" height="550" viewBox="0 0 820 550" fill="none" xmlns="http://www.w3.org/2000/svg">
<rect width="820" height="550" fill="#85B78D"/>
<path d="M228.39 275C228.39 327.434 185.579 370 132.695 370C79.8115 370 37 327.434 37 275C37 222.566 79.8115 180 132.695 180C185.579 180 228.39 222.566 228.39 275Z" stroke="white" stroke-opacity="0.1" stroke-width="10"/>
<path d="M304.662 275C304.662 327.434 261.85 370 208.967 370C156.083 370 113.271 327.434 113.271 275C113.271 222.566 156.083 180 208.967 180C261.85 180 304.662 222.566 304.662 275Z" stroke="white" stroke-opacity="0.15" stroke-width="10"/>
<path d="M385.218 275C385.218 327.434 342.406 370 289.523 370C236.639 370 193.827 327.434 193.827 275C193.827 222.566 236.639 180 289.523 180C342.406 180 385.218 222.566 385.218 275Z" stroke="white" stroke-opacity="0.2" stroke-width="10"/>
<path d="M464.06 275C464.06 327.434 421.249 370 368.365 370C315.481 370 272.67 327.434 272.67 275C272.67 222.566 315.481 180 368.365 180C421.249 180 464.06 222.566 464.06 275Z" stroke="white" stroke-opacity="0.4" stroke-width="10"/>
<path d="M546.33 275C546.33 327.434 503.519 370 450.635 370C397.751 370 354.94 327.434 354.94 275C354.94 222.566 397.751 180 450.635 180C503.519 180 546.33 222.566 546.33 275Z" stroke="white" stroke-opacity="0.55" stroke-width="10"/>
<path d="M626.03 275C626.03 327.434 583.218 370 530.334 370C477.451 370 434.639 327.434 434.639 275C434.639 222.566 477.451 180 530.334 180C583.218 180 626.03 222.566 626.03 275Z" stroke="white" stroke-opacity="0.7" stroke-width="10"/>
<path d="M703.158 275C703.158 327.434 660.346 370 607.463 370C554.579 370 511.767 327.434 511.767 275C511.767 222.566 554.579 180 607.463 180C660.346 180 703.158 222.566 703.158 275Z" stroke="white" stroke-opacity="0.9" stroke-width="10"/>
<g filter="url(#filter0_d_77_3)">
<ellipse cx="686.305" cy="275" rx="100.695" ry="100" fill="#989A41"/>
</g>
<defs>
<filter id="filter0_d_77_3" x="581.61" y="175" width="209.391" height="209" filterUnits="userSpaceOnUse" color-interpolation-filters="sRGB">
<feFlood flood-opacity="0" result="BackgroundImageFix"/>
<feColorMatrix in="SourceAlpha" type="matrix" values="0 0 0 0 0 0 0 0 0 0 0 0 0 0 0 0 0 0 127 0" result="hardAlpha"/>
<feOffset dy="5"/>
<feGaussianBlur stdDeviation="2"/>
<feComposite in2="hardAlpha" operator="out"/>
<feColorMatrix type="matrix" values="0 0 0 0 0 0 0 0 0 0 0 0 0 0 0 0 0 0 0.3 0"/>
<feBlend mode="normal" in2="BackgroundImageFix" result="effect1_dropShadow_77_3"/>
<feBlend mode="normal" in="SourceGraphic" in2="effect1_dropShadow_77_3" result="shape"/>
</filter>
</defs>
</svg>
