<svg width="820" height="550" viewBox="0 0 820 550" fill="none" xmlns="http://www.w3.org/2000/svg">
<rect width="820" height="550" fill="#A6E5B0"/>
<rect width="820" height="550" fill="black" fill-opacity="0.2"/>
<rect x="234" width="352" height="550" fill="white"/>
<rect x="234" width="352" height="69" fill="#2B6835"/>
<g filter="url(#filter0_d_79_16)">
<rect x="250" y="130" width="320" height="180" rx="10" fill="#8BCF97"/>
<path d="M250 140C250 134.477 254.477 130 260 130H560C565.523 130 570 134.477 570 140V176H250V140Z" fill="#419A50"/>
<ellipse cx="298" cy="172.5" rx="31" ry="31.5" fill="#2B6835"/>
</g>
<g filter="url(#filter1_d_79_16)">
<rect x="250" y="347" width="320" height="180" rx="10" fill="#8BCF97"/>
<path d="M250 357C250 351.477 254.477 347 260 347H560C565.523 347 570 351.477 570 357V393H250V357Z" fill="#419A50"/>
<ellipse cx="298" cy="389.5" rx="31" ry="31.5" fill="#2B6835"/>
</g>
<ellipse cx="534.5" cy="99.5" rx="15.5" ry="14.5" fill="#204F28"/>
<defs>
<filter id="filter0_d_79_16" x="246" y="130" width="328" height="188" filterUnits="userSpaceOnUse" color-interpolation-filters="sRGB">
<feFlood flood-opacity="0" result="BackgroundImageFix"/>
<feColorMatrix in="SourceAlpha" type="matrix" values="0 0 0 0 0 0 0 0 0 0 0 0 0 0 0 0 0 0 127 0" result="hardAlpha"/>
<feOffset dy="4"/>
<feGaussianBlur stdDeviation="2"/>
<feComposite in2="hardAlpha" operator="out"/>
<feColorMatrix type="matrix" values="0 0 0 0 0 0 0 0 0 0 0 0 0 0 0 0 0 0 0.25 0"/>
<feBlend mode="normal" in2="BackgroundImageFix" result="effect1_dropShadow_79_16"/>
<feBlend mode="normal" in="SourceGraphic" in2="effect1_dropShadow_79_16" result="shape"/>
</filter>
<filter id="filter1_d_79_16" x="246" y="347" width="328" height="188" filterUnits="userSpaceOnUse" color-interpolation-filters="sRGB">
<feFlood flood-opacity="0" result="BackgroundImageFix"/>
<feColorMatrix in="SourceAlpha" type="matrix" values="0 0 0 0 0 0 0 0 0 0 0 0 0 0 0 0 0 0 127 0" result="hardAlpha"/>
<feOffset dy="4"/>
<feGaussianBlur stdDeviation="2"/>
<feComposite in2="hardAlpha" operator="out"/>
<feColorMatrix type="matrix" values="0 0 0 0 0 0 0 0 0 0 0 0 0 0 0 0 0 0 0.25 0"/>
<feBlend mode="normal" in2="BackgroundImageFix" result="effect1_dropShadow_79_16"/>
<feBlend mode="normal" in="SourceGraphic" in2="effect1_dropShadow_79_16" result="shape"/>
</filter>
</defs>
</svg>
