<svg width="600" height="300" viewBox="0 0 600 300" fill="none" xmlns="http://www.w3.org/2000/svg">
<rect width="600" height="300" fill="#D5F8E5"/>
<mask id="path-1-inside-1_50_92" fill="white">
<path fill-rule="evenodd" clip-rule="evenodd" d="M369.343 163.101H231.714L231.657 163.101L231.599 163.101H229.418L229.419 163.161C206.348 164.401 188 184.696 188 209.551C188 234.819 206.963 255.374 230.574 255.986L230.574 256H369.343H370.463V255.985C394.056 255.353 413 234.806 413 209.551C413 184.295 394.056 163.748 370.463 163.116V163.101H369.343Z"/>
</mask>
<path fill-rule="evenodd" clip-rule="evenodd" d="M369.343 163.101H231.714L231.657 163.101L231.599 163.101H229.418L229.419 163.161C206.348 164.401 188 184.696 188 209.551C188 234.819 206.963 255.374 230.574 255.986L230.574 256H369.343H370.463V255.985C394.056 255.353 413 234.806 413 209.551C413 184.295 394.056 163.748 370.463 163.116V163.101H369.343Z" fill="#D5F8E5"/>
<path d="M231.714 163.101L231.714 164.101H231.714V163.101ZM231.657 163.101L231.657 162.101L231.656 162.101L231.657 163.101ZM231.599 163.101V164.101L231.6 164.101L231.599 163.101ZM229.418 163.101V162.101H228.405L228.418 163.114L229.418 163.101ZM229.419 163.161L229.472 164.16L230.43 164.108L230.419 163.149L229.419 163.161ZM230.574 255.986L231.573 255.973L231.561 255.011L230.599 254.986L230.574 255.986ZM230.574 256L229.574 256.012L229.586 257H230.574V256ZM370.463 256V257H371.463V256H370.463ZM370.463 255.985L370.436 254.985L369.463 255.011V255.985H370.463ZM370.463 163.116H369.463V164.09L370.436 164.116L370.463 163.116ZM370.463 163.101H371.463V162.101H370.463V163.101ZM231.714 164.101H369.343V162.101H231.714V164.101ZM231.656 164.101L231.714 164.101L231.715 162.101L231.657 162.101L231.656 164.101ZM231.6 164.101L231.657 164.101L231.656 162.101L231.598 162.101L231.6 164.101ZM229.418 164.101H231.599V162.101H229.418V164.101ZM230.419 163.149L230.418 163.089L228.418 163.114L228.419 163.173L230.419 163.149ZM189 209.551C189 185.175 206.982 165.368 229.472 164.16L229.365 162.162C205.713 163.433 187 184.216 187 209.551H189ZM230.599 254.986C207.585 254.39 189 234.332 189 209.551H187C187 235.305 206.341 256.358 230.548 256.986L230.599 254.986ZM231.574 255.987L231.573 255.973L229.574 255.998L229.574 256.012L231.574 255.987ZM369.343 255H230.574V257H369.343V255ZM370.463 255H369.343V257H370.463V255ZM369.463 255.985V256H371.463V255.985H369.463ZM412 209.551C412 234.319 393.434 254.37 370.436 254.985L370.489 256.985C394.679 256.337 414 235.292 414 209.551H412ZM370.436 164.116C393.434 164.732 412 184.782 412 209.551H414C414 183.809 394.679 162.764 370.489 162.116L370.436 164.116ZM369.463 163.101V163.116H371.463V163.101H369.463ZM369.343 164.101H370.463V162.101H369.343V164.101Z" fill="black" mask="url(#path-1-inside-1_50_92)"/>
<path d="M272.575 209.551C272.575 234.3 253.725 254.309 230.537 254.309C207.35 254.309 188.5 234.3 188.5 209.551C188.5 184.801 207.35 164.792 230.537 164.792C253.725 164.792 272.575 184.801 272.575 209.551Z" fill="#D5F8E5" stroke="black"/>
<mask id="path-4-inside-2_50_92" fill="white">
<path fill-rule="evenodd" clip-rule="evenodd" d="M369.343 44H231.657H229.418L229.419 44.06C206.348 45.2995 188 65.5947 188 90.4494C188 115.717 206.963 136.273 230.574 136.885L230.574 136.899H231.657H369.343H370.463V136.884C394.056 136.252 413 115.705 413 90.4494C413 65.1943 394.056 44.6468 370.463 44.015V44H369.343Z"/>
</mask>
<path fill-rule="evenodd" clip-rule="evenodd" d="M369.343 44H231.657H229.418L229.419 44.06C206.348 45.2995 188 65.5947 188 90.4494C188 115.717 206.963 136.273 230.574 136.885L230.574 136.899H231.657H369.343H370.463V136.884C394.056 136.252 413 115.705 413 90.4494C413 65.1943 394.056 44.6468 370.463 44.015V44H369.343Z" fill="#1C2E35"/>
<path d="M229.418 44V43H228.405L228.418 44.0125L229.418 44ZM229.419 44.06L229.472 45.0585L230.431 45.0071L230.419 44.0475L229.419 44.06ZM230.574 136.885L231.573 136.872L231.561 135.91L230.599 135.885L230.574 136.885ZM230.574 136.899L229.574 136.911L229.586 137.899H230.574V136.899ZM370.463 136.899V137.899H371.463V136.899H370.463ZM370.463 136.884L370.436 135.884L369.463 135.91V136.884H370.463ZM370.463 44.015H369.463V44.9886L370.436 45.0146L370.463 44.015ZM370.463 44H371.463V43H370.463V44ZM231.657 45H369.343V43H231.657V45ZM229.418 45H231.657V43H229.418V45ZM230.419 44.0475L230.418 43.9875L228.418 44.0125L228.419 44.0724L230.419 44.0475ZM189 90.4494C189 66.0743 206.982 46.2669 229.472 45.0585L229.365 43.0614C205.713 44.3322 187 65.1151 187 90.4494H189ZM230.599 135.885C207.585 135.289 189 115.231 189 90.4494H187C187 116.204 206.341 137.257 230.548 137.885L230.599 135.885ZM231.574 136.886L231.573 136.872L229.574 136.897L229.574 136.911L231.574 136.886ZM231.657 135.899H230.574V137.899H231.657V135.899ZM369.343 135.899H231.657V137.899H369.343V135.899ZM370.463 135.899H369.343V137.899H370.463V135.899ZM369.463 136.884V136.899H371.463V136.884H369.463ZM412 90.4494C412 115.218 393.434 135.268 370.436 135.884L370.489 137.884C394.679 137.236 414 116.191 414 90.4494H412ZM370.436 45.0146C393.434 45.6305 412 65.6806 412 90.4494H414C414 64.708 394.679 43.6631 370.489 43.0153L370.436 45.0146ZM369.463 44V44.015H371.463V44H369.463ZM369.343 45H370.463V43H369.343V45Z" fill="black" mask="url(#path-4-inside-2_50_92)"/>
<path d="M412.5 90.4495C412.5 115.199 393.65 135.208 370.463 135.208C347.275 135.208 328.425 115.199 328.425 90.4495C328.425 65.7004 347.275 45.691 370.463 45.691C393.65 45.691 412.5 65.7004 412.5 90.4495Z" fill="#5AE4A7" stroke="black"/>
<path fill-rule="evenodd" clip-rule="evenodd" d="M346.153 236.835C348.205 239.02 351.534 239.021 353.588 236.837C355.642 234.653 355.643 231.111 353.591 228.926L334.989 209.123L353.577 189.334C355.626 187.152 355.625 183.615 353.574 181.434C351.523 179.253 348.199 179.254 346.149 181.437L327.566 201.22L308.962 181.415C306.91 179.23 303.581 179.229 301.527 181.413C299.473 183.597 299.472 187.139 301.524 189.324L320.132 209.134L301.477 228.994C299.427 231.176 299.428 234.713 301.479 236.894C303.53 239.075 306.855 239.074 308.904 236.892L327.555 217.036L346.153 236.835Z" fill="#1C2E35"/>
<path fill-rule="evenodd" clip-rule="evenodd" d="M258.919 107.23L236.098 82.7991C234.067 80.6249 230.763 80.6147 228.719 82.7764C226.675 84.9381 226.664 88.4531 228.695 90.6274L255.379 119.194C255.805 119.651 256.288 120.012 256.804 120.278C259.037 121.722 261.955 121.177 263.52 118.941L299.079 68.1276C300.742 65.7514 300.247 62.3651 297.974 60.5642C295.701 58.7632 292.51 59.2296 290.847 61.6058L258.919 107.23Z" fill="#5AE4A7"/>
</svg>
