<svg width="600" height="300" viewBox="0 0 600 300" fill="none" xmlns="http://www.w3.org/2000/svg">
<rect width="600" height="300" fill="#F8D5D5"/>
<mask id="path-1-inside-1_50_123" fill="white">
<path fill-rule="evenodd" clip-rule="evenodd" d="M369.343 45H231.714L231.657 45L231.599 45H229.418L229.419 45.06C206.348 46.2995 188 66.5947 188 91.4494C188 116.717 206.963 137.273 230.574 137.885L230.574 137.899H369.343H370.463V137.884C394.056 137.252 413 116.705 413 91.4495C413 66.1944 394.056 45.6468 370.463 45.015V45H369.343Z"/>
</mask>
<path fill-rule="evenodd" clip-rule="evenodd" d="M369.343 45H231.714L231.657 45L231.599 45H229.418L229.419 45.06C206.348 46.2995 188 66.5947 188 91.4494C188 116.717 206.963 137.273 230.574 137.885L230.574 137.899H369.343H370.463V137.884C394.056 137.252 413 116.705 413 91.4495C413 66.1944 394.056 45.6468 370.463 45.015V45H369.343Z" fill="#F8D5D5"/>
<path d="M231.714 45L231.714 46H231.714V45ZM231.657 45L231.657 44L231.656 44L231.657 45ZM231.599 45V46L231.6 46L231.599 45ZM229.418 45V44H228.405L228.418 45.0124L229.418 45ZM229.419 45.06L229.472 46.0585L230.43 46.0071L230.419 45.0476L229.419 45.06ZM230.574 137.885L231.573 137.872L231.561 136.91L230.599 136.885L230.574 137.885ZM230.574 137.899L229.574 137.911L229.586 138.899H230.574V137.899ZM370.463 137.899V138.899H371.463V137.899H370.463ZM370.463 137.884L370.436 136.884L369.463 136.91V137.884H370.463ZM370.463 45.015H369.463V45.9886L370.436 46.0147L370.463 45.015ZM370.463 45H371.463V44H370.463V45ZM231.714 46H369.343V44H231.714V46ZM231.656 46L231.714 46L231.715 44L231.657 44L231.656 46ZM231.6 46L231.657 46L231.656 44L231.598 44L231.6 46ZM229.418 46H231.599V44H229.418V46ZM230.419 45.0476L230.418 44.9876L228.418 45.0124L228.419 45.0724L230.419 45.0476ZM189 91.4494C189 67.0743 206.982 47.2669 229.472 46.0585L229.365 44.0614C205.713 45.3322 187 66.1151 187 91.4494H189ZM230.599 136.885C207.585 136.289 189 116.231 189 91.4494H187C187 117.204 206.341 138.257 230.548 138.885L230.599 136.885ZM231.574 137.886L231.573 137.872L229.574 137.897L229.574 137.911L231.574 137.886ZM369.343 136.899H230.574V138.899H369.343V136.899ZM370.463 136.899H369.343V138.899H370.463V136.899ZM369.463 137.884V137.899H371.463V137.884H369.463ZM412 91.4495C412 116.218 393.434 136.268 370.436 136.884L370.489 138.884C394.679 138.236 414 117.191 414 91.4495H412ZM370.436 46.0147C393.434 46.6305 412 66.6807 412 91.4495H414C414 65.708 394.679 44.6631 370.489 44.0154L370.436 46.0147ZM369.463 45V45.015H371.463V45H369.463ZM369.343 46H370.463V44H369.343V46Z" fill="black" mask="url(#path-1-inside-1_50_123)"/>
<path d="M272.575 91.4493C272.575 116.198 253.725 136.208 230.537 136.208C207.35 136.208 188.5 116.198 188.5 91.4493C188.5 66.7003 207.35 46.6909 230.537 46.6909C253.725 46.6909 272.575 66.7003 272.575 91.4493Z" fill="#F8D5D5" stroke="black"/>
<mask id="path-4-inside-2_50_123" fill="white">
<path fill-rule="evenodd" clip-rule="evenodd" d="M369.343 161H231.657H229.418L229.419 161.06C206.348 162.3 188 182.595 188 207.449C188 232.717 206.963 253.273 230.574 253.885L230.574 253.899H231.657H369.343H370.463V253.884C394.056 253.252 413 232.705 413 207.449C413 182.194 394.056 161.647 370.463 161.015V161H369.343Z"/>
</mask>
<path fill-rule="evenodd" clip-rule="evenodd" d="M369.343 161H231.657H229.418L229.419 161.06C206.348 162.3 188 182.595 188 207.449C188 232.717 206.963 253.273 230.574 253.885L230.574 253.899H231.657H369.343H370.463V253.884C394.056 253.252 413 232.705 413 207.449C413 182.194 394.056 161.647 370.463 161.015V161H369.343Z" fill="#1C2E35"/>
<path d="M229.418 161V160H228.405L228.418 161.012L229.418 161ZM229.419 161.06L229.472 162.059L230.431 162.007L230.419 161.048L229.419 161.06ZM230.574 253.885L231.573 253.872L231.561 252.91L230.599 252.885L230.574 253.885ZM230.574 253.899L229.574 253.911L229.586 254.899H230.574V253.899ZM370.463 253.899V254.899H371.463V253.899H370.463ZM370.463 253.884L370.436 252.884L369.463 252.91V253.884H370.463ZM370.463 161.015H369.463V161.989L370.436 162.015L370.463 161.015ZM370.463 161H371.463V160H370.463V161ZM231.657 162H369.343V160H231.657V162ZM229.418 162H231.657V160H229.418V162ZM230.419 161.048L230.418 160.988L228.418 161.012L228.419 161.072L230.419 161.048ZM189 207.449C189 183.074 206.982 163.267 229.472 162.059L229.365 160.061C205.713 161.332 187 182.115 187 207.449H189ZM230.599 252.885C207.585 252.289 189 232.231 189 207.449H187C187 233.204 206.341 254.257 230.548 254.885L230.599 252.885ZM231.574 253.886L231.573 253.872L229.574 253.897L229.574 253.911L231.574 253.886ZM231.657 252.899H230.574V254.899H231.657V252.899ZM369.343 252.899H231.657V254.899H369.343V252.899ZM370.463 252.899H369.343V254.899H370.463V252.899ZM369.463 253.884V253.899H371.463V253.884H369.463ZM412 207.449C412 232.218 393.434 252.268 370.436 252.884L370.489 254.884C394.679 254.236 414 233.191 414 207.449H412ZM370.436 162.015C393.434 162.63 412 182.681 412 207.449H414C414 181.708 394.679 160.663 370.489 160.015L370.436 162.015ZM369.463 161V161.015H371.463V161H369.463ZM369.343 162H370.463V160H369.343V162Z" fill="black" mask="url(#path-4-inside-2_50_123)"/>
<path fill-rule="evenodd" clip-rule="evenodd" d="M291.212 235.059C293.265 237.245 296.594 237.245 298.648 235.061C300.702 232.877 300.703 229.335 298.65 227.15L280.049 207.347L298.636 187.559C300.686 185.377 300.685 181.84 298.634 179.659C296.583 177.478 293.259 177.479 291.209 179.661L272.626 199.445L254.022 179.64C251.969 177.454 248.64 177.453 246.586 179.637C244.533 181.821 244.532 185.363 246.584 187.549L265.192 207.358L246.537 227.219C244.487 229.401 244.488 232.938 246.539 235.119C248.59 237.3 251.914 237.299 253.964 235.117L272.615 215.261L291.212 235.059Z" fill="#E45A5A"/>
<path d="M412.5 207.449C412.5 232.198 393.65 252.208 370.463 252.208C347.275 252.208 328.425 232.198 328.425 207.449C328.425 182.7 347.275 162.691 370.463 162.691C393.65 162.691 412.5 182.7 412.5 207.449Z" fill="#E45A5A" stroke="black"/>
<path fill-rule="evenodd" clip-rule="evenodd" d="M328.74 107.762L305.919 83.3314C303.888 81.1571 300.585 81.147 298.54 83.3087C296.496 85.4704 296.485 88.9854 298.516 91.1596L325.2 119.726C325.627 120.183 326.11 120.544 326.626 120.81C328.859 122.254 331.776 121.709 333.341 119.473L368.901 68.6598C370.564 66.2836 370.069 62.8974 367.795 61.0964C365.522 59.2955 362.331 59.7618 360.668 62.138L328.74 107.762Z" fill="#1C2E35"/>
</svg>
