<svg width="100" height="100" viewBox="0 0 100 100" fill="none" xmlns="http://www.w3.org/2000/svg">
<rect width="100" height="100" rx="20" fill="#09A16A"/>
<path fill-rule="evenodd" clip-rule="evenodd" d="M52.4988 31.999C51.0379 30.8303 48.9621 30.8303 47.5012 31.999L31.5012 44.799C30.5524 45.5581 30 46.7074 30 47.9225V70H45V55C45 53.8954 45.8954 53 47 53H54C55.1046 53 56 53.8954 56 55V70H70V47.9225C70 46.7074 69.4476 45.5581 68.4988 44.799L52.4988 31.999Z" fill="white"/>
<path fill-rule="evenodd" clip-rule="evenodd" d="M61 25C60.4477 25 60 25.4477 60 26V31.2437L55.3825 27.4658C52.2514 24.904 47.7486 24.904 44.6175 27.4658L27.0501 41.8391C26.409 42.3637 26.3145 43.3087 26.839 43.9499C27.3636 44.591 28.3087 44.6855 28.9498 44.1609L46.5172 29.7877C48.5432 28.13 51.4568 28.13 53.4828 29.7877L71.0501 44.1609C71.6913 44.6855 72.6363 44.591 73.1609 43.9499C73.6855 43.3087 73.591 42.3637 72.9498 41.8391L65 35.3346V26C65 25.4477 64.5523 25 64 25H61Z" fill="white"/>
</svg>
